<?xml version="1.0" encoding="UTF-8" standalone="no"?>
<!-- Created with Inkscape (http://www.inkscape.org/) -->

<svg
   xmlns:dc="http://purl.org/dc/elements/1.1/"
   xmlns:cc="http://creativecommons.org/ns#"
   xmlns:rdf="http://www.w3.org/1999/02/22-rdf-syntax-ns#"
   xmlns:svg="http://www.w3.org/2000/svg"
   xmlns="http://www.w3.org/2000/svg"
   xmlns:sodipodi="http://sodipodi.sourceforge.net/DTD/sodipodi-0.dtd"
   xmlns:inkscape="http://www.inkscape.org/namespaces/inkscape"
   id="svg2"
   version="1.1"
   inkscape:version="0.92.2 (5c3e80d, 2017-08-06)"
   xml:space="preserve"
   width="130"
   height="30"
   viewBox="0 0 130 29.999999"
   sodipodi:docname="logo.svg"
   inkscape:export-filename="/home/eugene/Downloads/logo.png"
   inkscape:export-xdpi="42.677204"
   inkscape:export-ydpi="42.677204"><metadata
     id="metadata8"><rdf:RDF><cc:Work
         rdf:about=""><dc:format>image/svg+xml</dc:format><dc:type
           rdf:resource="http://purl.org/dc/dcmitype/StillImage" /><dc:title></dc:title></cc:Work></rdf:RDF></metadata><defs
     id="defs6" /><sodipodi:namedview
     pagecolor="#000000"
     bordercolor="#666666"
     borderopacity="1"
     objecttolerance="10"
     gridtolerance="10"
     guidetolerance="10"
     inkscape:pageopacity="0"
     inkscape:pageshadow="2"
     inkscape:window-width="1920"
     inkscape:window-height="1004"
     id="namedview4"
     showgrid="true"
     inkscape:zoom="256"
     inkscape:cx="24.23635"
     inkscape:cy="22.798291"
     inkscape:window-x="0"
     inkscape:window-y="0"
     inkscape:window-maximized="1"
     inkscape:current-layer="g10"><inkscape:grid
       type="xygrid"
       id="grid829"
       spacingx="0.5"
       spacingy="0.5"
       color="#d5d5d5"
       opacity="0.4"
       empcolor="#a2a2ff"
       empopacity="0.25098039" /></sodipodi:namedview><g
     id="g10"
     inkscape:groupmode="layer"
     inkscape:label="ink_ext_XXXXXX"
     transform="matrix(1.25,0,0,-1.25,0,30)"><path
       inkscape:connector-curvature="0"
       id="path14"
       style="fill:#fff200;fill-opacity:1;fill-rule:nonzero;stroke:none;stroke-width:0.02370941"
       d="m 4.8,19.199998 h 9.6 V 24 H 4.8 Z" /><path
       inkscape:connector-curvature="0"
       id="path16"
       style="fill:#fff200;fill-opacity:1;fill-rule:nonzero;stroke:none;stroke-width:0.02370944"
       d="m 0,14.399998 h 4.8 v 4.8 H 0 Z" /><path
       inkscape:connector-curvature="0"
       id="path18"
       style="fill:#fff200;fill-opacity:1;fill-rule:nonzero;stroke:none;stroke-width:0.02370941"
       d="m 4.8,9.5999984 h 9.6 V 14.4 H 4.8 Z" /><path
       inkscape:connector-curvature="0"
       id="path20"
       style="fill:#fff200;fill-opacity:1;fill-rule:nonzero;stroke:none;stroke-width:0.02391867"
       d="M -0.085091,4.7999984 H 4.8 v 4.8 h -4.885091 z" /><path
       inkscape:connector-curvature="0"
       id="path22"
       style="fill:#fff200;fill-opacity:1;fill-rule:nonzero;stroke:none;stroke-width:0.02370918"
       d="m 4.8,-1.6e-6 h 9.6 v 4.8 H 4.8 Z" /><path
       inkscape:connector-curvature="0"
       id="path24"
       style="fill:#ffffff;fill-opacity:1;fill-rule:nonzero;stroke:none;stroke-width:0.02413046"
       d="m 26.4,11.6 h -3.6 v 1.2 h 3.6 z M 27.2,6 20,5.9999984 V 18.4 h 7.2 v -1.2 h -6 v -10 h 6 V 6"
       sodipodi:nodetypes="cccccccccccccc" /><path
       inkscape:connector-curvature="0"
       id="path26"
       style="fill:#ffffff;fill-opacity:1;fill-rule:nonzero;stroke:none;stroke-width:0.02413046"
       d="m 36.8,6 h -4.4 v 1.2 h 4.4 z m -7.2,-1.6e-6 V 18.4 h 1.2 V 6"
       sodipodi:nodetypes="ccccccccc" /><path
       inkscape:connector-curvature="0"
       id="path28"
       style="fill:#ffffff;fill-opacity:1;fill-rule:nonzero;stroke:none;stroke-width:0.02413046"
       d="M 45.6,11.6 H 42 v 1.2 h 3.6 z M 46.497775,5.9999984 H 39.2 V 18.4 h 7.2 v -1.2 h -6 v -10 h 6 V 6"
       sodipodi:nodetypes="cccccccccccccc" /><path
       inkscape:connector-curvature="0"
       id="path30"
       style="fill:#ffffff;fill-opacity:1;fill-rule:nonzero;stroke:none;stroke-width:0.02413046"
       d="m 60.969873,5.9999984 h -1.330071 v 8.0456986 h 1.330071 z m -10.440285,0 H 49.2 v 8.0456986 h 1.329588 V 5.9999984" /><path
       inkscape:connector-curvature="0"
       id="path32"
       style="fill:#ffffff;fill-opacity:1;fill-rule:nonzero;stroke:none;stroke-width:0.02413046"
       d="m 70.350172,11.652076 h -3.574204 v 1.163546 h 3.574204 z M 71.298016,5.9999984 H 64 V 18.4677 h 7.298016 V 17.304178 H 65.329589 V 7.1635209 h 5.968427 V 5.9999984" /><path
       inkscape:connector-curvature="0"
       id="path34"
       style="fill:#ffffff;fill-opacity:1;fill-rule:nonzero;stroke:none;stroke-width:0.02413046"
       d="M 83.2,10 H 82 v 8.4 h 1.2 z m -8,-4 -1.2,-1.6e-6 V 14.4 h 1.2 z m 8.240319,0.4747652 -1.063912,-0.6985527 -8.505022,12.1985265 1.080803,0.698166 8.488131,-12.1981398"
       sodipodi:nodetypes="ccccccccccccccc" /><path
       inkscape:connector-curvature="0"
       id="path36"
       style="fill:#ffffff;fill-opacity:1;fill-rule:nonzero;stroke:none;stroke-width:0.02413046"
       d="m 90.4,6 -1.2,-1.6e-6 V 15.6 h 1.2 z m 4,11.2 h -9.2 v 1.2 h 9.2"
       sodipodi:nodetypes="ccccccccc" /><path
       inkscape:connector-curvature="0"
       id="path38"
       style="fill:#ffffff;fill-opacity:1;fill-rule:nonzero;stroke:none;stroke-width:0.02413046"
       d="m 102.80002,15.414659 c -0.44907,1.512569 -1.76201,2.227434 -3.058777,2.227434 -1.36313,0 -2.626601,-0.8145 -2.626601,-2.310757 0,-0.914327 0.565377,-1.828751 1.762007,-2.094548 l 0.399117,-0.09992 -0.316109,-1.180221 -0.365817,0.08332 c -1.828365,0.431984 -2.775969,1.84504 -2.775969,3.258095 0,2.310661 1.944916,3.491267 3.923372,3.491267 1.778657,0 3.590857,-0.947675 4.139337,-2.959359 z M 99.87396,5.6563246 c -1.828606,0 -3.707162,0.930736 -4.371956,3.0089718 l 1.13027,0.465356 c 0.482368,-1.5959163 1.828848,-2.3107811 3.191736,-2.3107811 1.52963,0 2.92606,0.8977255 2.92606,2.5102193 0,1.1306564 -0.68144,1.9617344 -2.01176,2.2275554 l -0.33227,0.06655 0.31562,1.18022 0.48237,-0.09963 c 1.84502,-0.38242 2.82616,-1.679142 2.82616,-3.3246227 0,-2.0616582 -1.66259,-3.7238367 -4.15623,-3.7238367" /><path
       inkscape:connector-curvature="0"
       id="path40"
       style="fill:#ffffff;fill-opacity:1;fill-rule:nonzero;stroke:none;stroke-width:0.02413046"
       d="m 61.277882,17.985206 -1.06367,0.858972 -5.113003,-5.408047 -5.129654,5.422863 -1.06367,-0.858996 6.012104,-6.352247 0.18122,-0.190221 0.181219,0.190221 5.995454,6.337455" /></g></svg>